<?xml version="1.0" standalone="no"?>
<svg xmlns:xlink="http://www.w3.org/1999/xlink" id="wave" style="transform:rotate(0deg); transition: 0.3s" viewBox="0 0 1440 490" version="1.1" xmlns="http://www.w3.org/2000/svg"><defs><linearGradient id="sw-gradient-0" x1="0" x2="0" y1="1" y2="0"><stop stop-color="rgba(144, 177, 187, 1)" offset="0%"/><stop stop-color="rgba(166, 226, 245, 1)" offset="100%"/></linearGradient></defs><path style="transform:translate(0, 0px); opacity:1" fill="url(#sw-gradient-0)" d="M0,98L120,155.2C240,212,480,327,720,383.8C960,441,1200,441,1440,408.3C1680,376,1920,310,2160,236.8C2400,163,2640,82,2880,89.8C3120,98,3360,196,3600,228.7C3840,261,4080,229,4320,204.2C4560,180,4800,163,5040,138.8C5280,114,5520,82,5760,65.3C6000,49,6240,49,6480,73.5C6720,98,6960,147,7200,147C7440,147,7680,98,7920,73.5C8160,49,8400,49,8640,81.7C8880,114,9120,180,9360,212.3C9600,245,9840,245,10080,236.8C10320,229,10560,212,10800,245C11040,278,11280,359,11520,351.2C11760,343,12000,245,12240,179.7C12480,114,12720,82,12960,73.5C13200,65,13440,82,13680,138.8C13920,196,14160,294,14400,334.8C14640,376,14880,359,15120,367.5C15360,376,15600,408,15840,367.5C16080,327,16320,212,16560,147C16800,82,17040,65,17160,57.2L17280,49L17280,490L17160,490C17040,490,16800,490,16560,490C16320,490,16080,490,15840,490C15600,490,15360,490,15120,490C14880,490,14640,490,14400,490C14160,490,13920,490,13680,490C13440,490,13200,490,12960,490C12720,490,12480,490,12240,490C12000,490,11760,490,11520,490C11280,490,11040,490,10800,490C10560,490,10320,490,10080,490C9840,490,9600,490,9360,490C9120,490,8880,490,8640,490C8400,490,8160,490,7920,490C7680,490,7440,490,7200,490C6960,490,6720,490,6480,490C6240,490,6000,490,5760,490C5520,490,5280,490,5040,490C4800,490,4560,490,4320,490C4080,490,3840,490,3600,490C3360,490,3120,490,2880,490C2640,490,2400,490,2160,490C1920,490,1680,490,1440,490C1200,490,960,490,720,490C480,490,240,490,120,490L0,490Z"/><defs><linearGradient id="sw-gradient-1" x1="0" x2="0" y1="1" y2="0"><stop stop-color="rgba(144, 177, 187, 1)" offset="0%"/><stop stop-color="rgba(166, 226, 245, 1)" offset="100%"/></linearGradient></defs><path style="transform:translate(0, 50px); opacity:0.9" fill="url(#sw-gradient-1)" d="M0,392L120,383.8C240,376,480,359,720,310.3C960,261,1200,180,1440,163.3C1680,147,1920,196,2160,204.2C2400,212,2640,180,2880,171.5C3120,163,3360,180,3600,228.7C3840,278,4080,359,4320,351.2C4560,343,4800,245,5040,204.2C5280,163,5520,180,5760,171.5C6000,163,6240,131,6480,163.3C6720,196,6960,294,7200,351.2C7440,408,7680,425,7920,375.7C8160,327,8400,212,8640,171.5C8880,131,9120,163,9360,204.2C9600,245,9840,294,10080,277.7C10320,261,10560,180,10800,138.8C11040,98,11280,98,11520,138.8C11760,180,12000,261,12240,261.3C12480,261,12720,180,12960,163.3C13200,147,13440,196,13680,212.3C13920,229,14160,212,14400,204.2C14640,196,14880,196,15120,236.8C15360,278,15600,359,15840,351.2C16080,343,16320,245,16560,228.7C16800,212,17040,278,17160,310.3L17280,343L17280,490L17160,490C17040,490,16800,490,16560,490C16320,490,16080,490,15840,490C15600,490,15360,490,15120,490C14880,490,14640,490,14400,490C14160,490,13920,490,13680,490C13440,490,13200,490,12960,490C12720,490,12480,490,12240,490C12000,490,11760,490,11520,490C11280,490,11040,490,10800,490C10560,490,10320,490,10080,490C9840,490,9600,490,9360,490C9120,490,8880,490,8640,490C8400,490,8160,490,7920,490C7680,490,7440,490,7200,490C6960,490,6720,490,6480,490C6240,490,6000,490,5760,490C5520,490,5280,490,5040,490C4800,490,4560,490,4320,490C4080,490,3840,490,3600,490C3360,490,3120,490,2880,490C2640,490,2400,490,2160,490C1920,490,1680,490,1440,490C1200,490,960,490,720,490C480,490,240,490,120,490L0,490Z"/><defs><linearGradient id="sw-gradient-2" x1="0" x2="0" y1="1" y2="0"><stop stop-color="rgba(144, 177, 187, 1)" offset="0%"/><stop stop-color="rgba(166, 226, 245, 1)" offset="100%"/></linearGradient></defs><path style="transform:translate(0, 100px); opacity:0.8" fill="url(#sw-gradient-2)" d="M0,245L120,253.2C240,261,480,278,720,269.5C960,261,1200,229,1440,236.8C1680,245,1920,294,2160,302.2C2400,310,2640,278,2880,236.8C3120,196,3360,147,3600,155.2C3840,163,4080,229,4320,245C4560,261,4800,229,5040,187.8C5280,147,5520,98,5760,81.7C6000,65,6240,82,6480,147C6720,212,6960,327,7200,334.8C7440,343,7680,245,7920,212.3C8160,180,8400,212,8640,236.8C8880,261,9120,278,9360,253.2C9600,229,9840,163,10080,155.2C10320,147,10560,196,10800,204.2C11040,212,11280,180,11520,163.3C11760,147,12000,147,12240,179.7C12480,212,12720,278,12960,310.3C13200,343,13440,343,13680,334.8C13920,327,14160,310,14400,310.3C14640,310,14880,327,15120,343C15360,359,15600,376,15840,351.2C16080,327,16320,261,16560,269.5C16800,278,17040,359,17160,400.2L17280,441L17280,490L17160,490C17040,490,16800,490,16560,490C16320,490,16080,490,15840,490C15600,490,15360,490,15120,490C14880,490,14640,490,14400,490C14160,490,13920,490,13680,490C13440,490,13200,490,12960,490C12720,490,12480,490,12240,490C12000,490,11760,490,11520,490C11280,490,11040,490,10800,490C10560,490,10320,490,10080,490C9840,490,9600,490,9360,490C9120,490,8880,490,8640,490C8400,490,8160,490,7920,490C7680,490,7440,490,7200,490C6960,490,6720,490,6480,490C6240,490,6000,490,5760,490C5520,490,5280,490,5040,490C4800,490,4560,490,4320,490C4080,490,3840,490,3600,490C3360,490,3120,490,2880,490C2640,490,2400,490,2160,490C1920,490,1680,490,1440,490C1200,490,960,490,720,490C480,490,240,490,120,490L0,490Z"/><defs><linearGradient id="sw-gradient-3" x1="0" x2="0" y1="1" y2="0"><stop stop-color="rgba(144, 177, 187, 1)" offset="0%"/><stop stop-color="rgba(166, 226, 245, 1)" offset="100%"/></linearGradient></defs><path style="transform:translate(0, 150px); opacity:0.7" fill="url(#sw-gradient-3)" d="M0,49L120,106.2C240,163,480,278,720,334.8C960,392,1200,392,1440,367.5C1680,343,1920,294,2160,253.2C2400,212,2640,180,2880,138.8C3120,98,3360,49,3600,32.7C3840,16,4080,33,4320,65.3C4560,98,4800,147,5040,187.8C5280,229,5520,261,5760,245C6000,229,6240,163,6480,122.5C6720,82,6960,65,7200,73.5C7440,82,7680,114,7920,106.2C8160,98,8400,49,8640,40.8C8880,33,9120,65,9360,81.7C9600,98,9840,98,10080,106.2C10320,114,10560,131,10800,138.8C11040,147,11280,147,11520,171.5C11760,196,12000,245,12240,294C12480,343,12720,392,12960,383.8C13200,376,13440,310,13680,236.8C13920,163,14160,82,14400,65.3C14640,49,14880,98,15120,147C15360,196,15600,245,15840,277.7C16080,310,16320,327,16560,285.8C16800,245,17040,147,17160,98L17280,49L17280,490L17160,490C17040,490,16800,490,16560,490C16320,490,16080,490,15840,490C15600,490,15360,490,15120,490C14880,490,14640,490,14400,490C14160,490,13920,490,13680,490C13440,490,13200,490,12960,490C12720,490,12480,490,12240,490C12000,490,11760,490,11520,490C11280,490,11040,490,10800,490C10560,490,10320,490,10080,490C9840,490,9600,490,9360,490C9120,490,8880,490,8640,490C8400,490,8160,490,7920,490C7680,490,7440,490,7200,490C6960,490,6720,490,6480,490C6240,490,6000,490,5760,490C5520,490,5280,490,5040,490C4800,490,4560,490,4320,490C4080,490,3840,490,3600,490C3360,490,3120,490,2880,490C2640,490,2400,490,2160,490C1920,490,1680,490,1440,490C1200,490,960,490,720,490C480,490,240,490,120,490L0,490Z"/></svg>